<svg width="300" height="300" viewBox="0 0 300 300" fill="none" xmlns="http://www.w3.org/2000/svg">
<g clip-path="url(#clip0_299_2)">
<mask id="mask0_299_2" style="mask-type:alpha" maskUnits="userSpaceOnUse" x="0" y="0" width="300" height="300">
<path d="M150 300C232.843 300 300 232.843 300 150C300 67.1573 232.843 0 150 0C67.1573 0 0 67.1573 0 150C0 232.843 67.1573 300 150 300Z" fill="#D9D9D9"/>
</mask>
<g mask="url(#mask0_299_2)">
<path d="M104.51 67.4501C106.449 67.4501 108.02 65.8786 108.02 63.9401C108.02 62.0015 106.449 60.4301 104.51 60.4301C102.571 60.4301 101 62.0015 101 63.9401C101 65.8786 102.571 67.4501 104.51 67.4501Z" fill="black"/>
<path d="M104.51 293.45C106.449 293.45 108.02 291.879 108.02 289.94C108.02 288.002 106.449 286.43 104.51 286.43C102.571 286.43 101 288.002 101 289.94C101 291.879 102.571 293.45 104.51 293.45Z" fill="black"/>
<path d="M225.51 67.4501C227.449 67.4501 229.02 65.8786 229.02 63.9401C229.02 62.0015 227.449 60.4301 225.51 60.4301C223.571 60.4301 222 62.0015 222 63.9401C222 65.8786 223.571 67.4501 225.51 67.4501Z" fill="black"/>
<path d="M225.51 293.45C227.449 293.45 229.02 291.879 229.02 289.94C229.02 288.002 227.449 286.43 225.51 286.43C223.571 286.43 222 288.002 222 289.94C222 291.879 223.571 293.45 225.51 293.45Z" fill="black"/>
<path d="M13.6999 67.4501C15.6384 67.4501 17.2099 65.8786 17.2099 63.9401C17.2099 62.0015 15.6384 60.4301 13.6999 60.4301C11.7614 60.4301 10.1899 62.0015 10.1899 63.9401C10.1899 65.8786 11.7614 67.4501 13.6999 67.4501Z" fill="black"/>
<path d="M13.6999 293.45C15.6384 293.45 17.2099 291.879 17.2099 289.94C17.2099 288.002 15.6384 286.43 13.6999 286.43C11.7614 286.43 10.1899 288.002 10.1899 289.94C10.1899 291.879 11.7614 293.45 13.6999 293.45Z" fill="black"/>
<path d="M134.7 67.4501C136.638 67.4501 138.21 65.8786 138.21 63.9401C138.21 62.0015 136.638 60.4301 134.7 60.4301C132.761 60.4301 131.19 62.0015 131.19 63.9401C131.19 65.8786 132.761 67.4501 134.7 67.4501Z" fill="black"/>
<path d="M134.7 293.45C136.638 293.45 138.21 291.879 138.21 289.94C138.21 288.002 136.638 286.43 134.7 286.43C132.761 286.43 131.19 288.002 131.19 289.94C131.19 291.879 132.761 293.45 134.7 293.45Z" fill="black"/>
<path d="M255.7 67.4501C257.638 67.4501 259.21 65.8786 259.21 63.9401C259.21 62.0015 257.638 60.4301 255.7 60.4301C253.761 60.4301 252.19 62.0015 252.19 63.9401C252.19 65.8786 253.761 67.4501 255.7 67.4501Z" fill="black"/>
<path d="M255.7 293.45C257.638 293.45 259.21 291.879 259.21 289.94C259.21 288.002 257.638 286.43 255.7 286.43C253.761 286.43 252.19 288.002 252.19 289.94C252.19 291.879 253.761 293.45 255.7 293.45Z" fill="black"/>
<path d="M43.88 67.4501C45.8185 67.4501 47.39 65.8786 47.39 63.9401C47.39 62.0015 45.8185 60.4301 43.88 60.4301C41.9415 60.4301 40.37 62.0015 40.37 63.9401C40.37 65.8786 41.9415 67.4501 43.88 67.4501Z" fill="black"/>
<path d="M43.88 293.45C45.8185 293.45 47.39 291.879 47.39 289.94C47.39 288.002 45.8185 286.43 43.88 286.43C41.9415 286.43 40.37 288.002 40.37 289.94C40.37 291.879 41.9415 293.45 43.88 293.45Z" fill="black"/>
<path d="M164.88 67.4501C166.819 67.4501 168.39 65.8786 168.39 63.9401C168.39 62.0015 166.819 60.4301 164.88 60.4301C162.941 60.4301 161.37 62.0015 161.37 63.9401C161.37 65.8786 162.941 67.4501 164.88 67.4501Z" fill="black"/>
<path d="M164.88 293.45C166.819 293.45 168.39 291.879 168.39 289.94C168.39 288.002 166.819 286.43 164.88 286.43C162.941 286.43 161.37 288.002 161.37 289.94C161.37 291.879 162.941 293.45 164.88 293.45Z" fill="black"/>
<path d="M285.88 67.4501C287.819 67.4501 289.39 65.8786 289.39 63.9401C289.39 62.0015 287.819 60.4301 285.88 60.4301C283.941 60.4301 282.37 62.0015 282.37 63.9401C282.37 65.8786 283.941 67.4501 285.88 67.4501Z" fill="black"/>
<path d="M285.88 293.45C287.819 293.45 289.39 291.879 289.39 289.94C289.39 288.002 287.819 286.43 285.88 286.43C283.941 286.43 282.37 288.002 282.37 289.94C282.37 291.879 283.941 293.45 285.88 293.45Z" fill="black"/>
<path d="M74.0699 67.4501C76.0084 67.4501 77.5799 65.8786 77.5799 63.9401C77.5799 62.0015 76.0084 60.4301 74.0699 60.4301C72.1314 60.4301 70.5599 62.0015 70.5599 63.9401C70.5599 65.8786 72.1314 67.4501 74.0699 67.4501Z" fill="black"/>
<path d="M74.0699 293.45C76.0084 293.45 77.5799 291.879 77.5799 289.94C77.5799 288.002 76.0084 286.43 74.0699 286.43C72.1314 286.43 70.5599 288.002 70.5599 289.94C70.5599 291.879 72.1314 293.45 74.0699 293.45Z" fill="black"/>
<path d="M195.07 67.4501C197.009 67.4501 198.58 65.8786 198.58 63.9401C198.58 62.0015 197.009 60.4301 195.07 60.4301C193.132 60.4301 191.56 62.0015 191.56 63.9401C191.56 65.8786 193.132 67.4501 195.07 67.4501Z" fill="black"/>
<path d="M195.07 293.45C197.009 293.45 198.58 291.879 198.58 289.94C198.58 288.002 197.009 286.43 195.07 286.43C193.132 286.43 191.56 288.002 191.56 289.94C191.56 291.879 193.132 293.45 195.07 293.45Z" fill="black"/>
<path d="M104.51 96.0801C106.449 96.0801 108.02 94.5086 108.02 92.5701C108.02 90.6315 106.449 89.0601 104.51 89.0601C102.571 89.0601 101 90.6315 101 92.5701C101 94.5086 102.571 96.0801 104.51 96.0801Z" fill="black"/>
<path d="M225.51 96.0801C227.449 96.0801 229.02 94.5086 229.02 92.5701C229.02 90.6315 227.449 89.0601 225.51 89.0601C223.571 89.0601 222 90.6315 222 92.5701C222 94.5086 223.571 96.0801 225.51 96.0801Z" fill="black"/>
<path d="M13.6999 96.0801C15.6384 96.0801 17.2099 94.5086 17.2099 92.5701C17.2099 90.6315 15.6384 89.0601 13.6999 89.0601C11.7614 89.0601 10.1899 90.6315 10.1899 92.5701C10.1899 94.5086 11.7614 96.0801 13.6999 96.0801Z" fill="black"/>
<path d="M134.7 96.0801C136.638 96.0801 138.21 94.5086 138.21 92.5701C138.21 90.6315 136.638 89.0601 134.7 89.0601C132.761 89.0601 131.19 90.6315 131.19 92.5701C131.19 94.5086 132.761 96.0801 134.7 96.0801Z" fill="black"/>
<path d="M255.7 96.0801C257.638 96.0801 259.21 94.5086 259.21 92.5701C259.21 90.6315 257.638 89.0601 255.7 89.0601C253.761 89.0601 252.19 90.6315 252.19 92.5701C252.19 94.5086 253.761 96.0801 255.7 96.0801Z" fill="black"/>
<path d="M43.88 96.0801C45.8185 96.0801 47.39 94.5086 47.39 92.5701C47.39 90.6315 45.8185 89.0601 43.88 89.0601C41.9415 89.0601 40.37 90.6315 40.37 92.5701C40.37 94.5086 41.9415 96.0801 43.88 96.0801Z" fill="black"/>
<path d="M164.88 96.0801C166.819 96.0801 168.39 94.5086 168.39 92.5701C168.39 90.6315 166.819 89.0601 164.88 89.0601C162.941 89.0601 161.37 90.6315 161.37 92.5701C161.37 94.5086 162.941 96.0801 164.88 96.0801Z" fill="black"/>
<path d="M285.88 96.0801C287.819 96.0801 289.39 94.5086 289.39 92.5701C289.39 90.6315 287.819 89.0601 285.88 89.0601C283.941 89.0601 282.37 90.6315 282.37 92.5701C282.37 94.5086 283.941 96.0801 285.88 96.0801Z" fill="black"/>
<path d="M74.0699 96.0801C76.0084 96.0801 77.5799 94.5086 77.5799 92.5701C77.5799 90.6315 76.0084 89.0601 74.0699 89.0601C72.1314 89.0601 70.5599 90.6315 70.5599 92.5701C70.5599 94.5086 72.1314 96.0801 74.0699 96.0801Z" fill="black"/>
<path d="M195.07 96.0801C197.009 96.0801 198.58 94.5086 198.58 92.5701C198.58 90.6315 197.009 89.0601 195.07 89.0601C193.132 89.0601 191.56 90.6315 191.56 92.5701C191.56 94.5086 193.132 96.0801 195.07 96.0801Z" fill="black"/>
<path d="M104.51 124.7C106.449 124.7 108.02 123.128 108.02 121.19C108.02 119.251 106.449 117.68 104.51 117.68C102.571 117.68 101 119.251 101 121.19C101 123.128 102.571 124.7 104.51 124.7Z" fill="black"/>
<path d="M225.51 124.7C227.449 124.7 229.02 123.128 229.02 121.19C229.02 119.251 227.449 117.68 225.51 117.68C223.571 117.68 222 119.251 222 121.19C222 123.128 223.571 124.7 225.51 124.7Z" fill="black"/>
<path d="M13.6999 124.7C15.6384 124.7 17.2099 123.128 17.2099 121.19C17.2099 119.251 15.6384 117.68 13.6999 117.68C11.7614 117.68 10.1899 119.251 10.1899 121.19C10.1899 123.128 11.7614 124.7 13.6999 124.7Z" fill="black"/>
<path d="M134.7 124.7C136.638 124.7 138.21 123.128 138.21 121.19C138.21 119.251 136.638 117.68 134.7 117.68C132.761 117.68 131.19 119.251 131.19 121.19C131.19 123.128 132.761 124.7 134.7 124.7Z" fill="black"/>
<path d="M255.7 124.7C257.638 124.7 259.21 123.128 259.21 121.19C259.21 119.251 257.638 117.68 255.7 117.68C253.761 117.68 252.19 119.251 252.19 121.19C252.19 123.128 253.761 124.7 255.7 124.7Z" fill="black"/>
<path d="M43.88 124.7C45.8185 124.7 47.39 123.128 47.39 121.19C47.39 119.251 45.8185 117.68 43.88 117.68C41.9415 117.68 40.37 119.251 40.37 121.19C40.37 123.128 41.9415 124.7 43.88 124.7Z" fill="black"/>
<path d="M164.88 124.7C166.819 124.7 168.39 123.128 168.39 121.19C168.39 119.251 166.819 117.68 164.88 117.68C162.941 117.68 161.37 119.251 161.37 121.19C161.37 123.128 162.941 124.7 164.88 124.7Z" fill="black"/>
<path d="M285.88 124.7C287.819 124.7 289.39 123.128 289.39 121.19C289.39 119.251 287.819 117.68 285.88 117.68C283.941 117.68 282.37 119.251 282.37 121.19C282.37 123.128 283.941 124.7 285.88 124.7Z" fill="black"/>
<path d="M74.0699 124.7C76.0084 124.7 77.5799 123.128 77.5799 121.19C77.5799 119.251 76.0084 117.68 74.0699 117.68C72.1314 117.68 70.5599 119.251 70.5599 121.19C70.5599 123.128 72.1314 124.7 74.0699 124.7Z" fill="black"/>
<path d="M195.07 124.7C197.009 124.7 198.58 123.128 198.58 121.19C198.58 119.251 197.009 117.68 195.07 117.68C193.132 117.68 191.56 119.251 191.56 121.19C191.56 123.128 193.132 124.7 195.07 124.7Z" fill="black"/>
<path d="M104.51 153.33C106.449 153.33 108.02 151.759 108.02 149.82C108.02 147.882 106.449 146.31 104.51 146.31C102.571 146.31 101 147.882 101 149.82C101 151.759 102.571 153.33 104.51 153.33Z" fill="black"/>
<path d="M225.51 153.33C227.449 153.33 229.02 151.759 229.02 149.82C229.02 147.882 227.449 146.31 225.51 146.31C223.571 146.31 222 147.882 222 149.82C222 151.759 223.571 153.33 225.51 153.33Z" fill="black"/>
<path d="M13.6999 153.33C15.6384 153.33 17.2099 151.759 17.2099 149.82C17.2099 147.882 15.6384 146.31 13.6999 146.31C11.7614 146.31 10.1899 147.882 10.1899 149.82C10.1899 151.759 11.7614 153.33 13.6999 153.33Z" fill="black"/>
<path d="M134.7 153.33C136.638 153.33 138.21 151.759 138.21 149.82C138.21 147.882 136.638 146.31 134.7 146.31C132.761 146.31 131.19 147.882 131.19 149.82C131.19 151.759 132.761 153.33 134.7 153.33Z" fill="black"/>
<path d="M255.7 153.33C257.638 153.33 259.21 151.759 259.21 149.82C259.21 147.882 257.638 146.31 255.7 146.31C253.761 146.31 252.19 147.882 252.19 149.82C252.19 151.759 253.761 153.33 255.7 153.33Z" fill="black"/>
<path d="M43.88 153.33C45.8185 153.33 47.39 151.759 47.39 149.82C47.39 147.882 45.8185 146.31 43.88 146.31C41.9415 146.31 40.37 147.882 40.37 149.82C40.37 151.759 41.9415 153.33 43.88 153.33Z" fill="black"/>
<path d="M164.88 153.33C166.819 153.33 168.39 151.759 168.39 149.82C168.39 147.882 166.819 146.31 164.88 146.31C162.941 146.31 161.37 147.882 161.37 149.82C161.37 151.759 162.941 153.33 164.88 153.33Z" fill="black"/>
<path d="M285.88 153.33C287.819 153.33 289.39 151.759 289.39 149.82C289.39 147.882 287.819 146.31 285.88 146.31C283.941 146.31 282.37 147.882 282.37 149.82C282.37 151.759 283.941 153.33 285.88 153.33Z" fill="black"/>
<path d="M74.0699 153.33C76.0084 153.33 77.5799 151.759 77.5799 149.82C77.5799 147.882 76.0084 146.31 74.0699 146.31C72.1314 146.31 70.5599 147.882 70.5599 149.82C70.5599 151.759 72.1314 153.33 74.0699 153.33Z" fill="black"/>
<path d="M195.07 153.33C197.009 153.33 198.58 151.759 198.58 149.82C198.58 147.882 197.009 146.31 195.07 146.31C193.132 146.31 191.56 147.882 191.56 149.82C191.56 151.759 193.132 153.33 195.07 153.33Z" fill="black"/>
<path d="M104.51 182.02C106.449 182.02 108.02 180.449 108.02 178.51C108.02 176.571 106.449 175 104.51 175C102.571 175 101 176.571 101 178.51C101 180.449 102.571 182.02 104.51 182.02Z" fill="black"/>
<path d="M225.51 182.02C227.449 182.02 229.02 180.449 229.02 178.51C229.02 176.571 227.449 175 225.51 175C223.571 175 222 176.571 222 178.51C222 180.449 223.571 182.02 225.51 182.02Z" fill="black"/>
<path d="M13.6999 182.02C15.6384 182.02 17.2099 180.449 17.2099 178.51C17.2099 176.571 15.6384 175 13.6999 175C11.7614 175 10.1899 176.571 10.1899 178.51C10.1899 180.449 11.7614 182.02 13.6999 182.02Z" fill="black"/>
<path d="M134.7 182.02C136.638 182.02 138.21 180.449 138.21 178.51C138.21 176.571 136.638 175 134.7 175C132.761 175 131.19 176.571 131.19 178.51C131.19 180.449 132.761 182.02 134.7 182.02Z" fill="black"/>
<path d="M255.7 182.02C257.638 182.02 259.21 180.449 259.21 178.51C259.21 176.571 257.638 175 255.7 175C253.761 175 252.19 176.571 252.19 178.51C252.19 180.449 253.761 182.02 255.7 182.02Z" fill="black"/>
<path d="M43.88 182.02C45.8185 182.02 47.39 180.449 47.39 178.51C47.39 176.571 45.8185 175 43.88 175C41.9415 175 40.37 176.571 40.37 178.51C40.37 180.449 41.9415 182.02 43.88 182.02Z" fill="black"/>
<path d="M164.88 182.02C166.819 182.02 168.39 180.449 168.39 178.51C168.39 176.571 166.819 175 164.88 175C162.941 175 161.37 176.571 161.37 178.51C161.37 180.449 162.941 182.02 164.88 182.02Z" fill="black"/>
<path d="M285.88 182.02C287.819 182.02 289.39 180.449 289.39 178.51C289.39 176.571 287.819 175 285.88 175C283.941 175 282.37 176.571 282.37 178.51C282.37 180.449 283.941 182.02 285.88 182.02Z" fill="black"/>
<path d="M74.0699 182.02C76.0084 182.02 77.5799 180.449 77.5799 178.51C77.5799 176.571 76.0084 175 74.0699 175C72.1314 175 70.5599 176.571 70.5599 178.51C70.5599 180.449 72.1314 182.02 74.0699 182.02Z" fill="black"/>
<path d="M195.07 182.02C197.009 182.02 198.58 180.449 198.58 178.51C198.58 176.571 197.009 175 195.07 175C193.132 175 191.56 176.571 191.56 178.51C191.56 180.449 193.132 182.02 195.07 182.02Z" fill="black"/>
<path d="M104.51 210.65C106.449 210.65 108.02 209.079 108.02 207.14C108.02 205.201 106.449 203.63 104.51 203.63C102.571 203.63 101 205.201 101 207.14C101 209.079 102.571 210.65 104.51 210.65Z" fill="black"/>
<path d="M225.51 210.65C227.449 210.65 229.02 209.079 229.02 207.14C229.02 205.201 227.449 203.63 225.51 203.63C223.571 203.63 222 205.201 222 207.14C222 209.079 223.571 210.65 225.51 210.65Z" fill="black"/>
<path d="M13.6999 210.65C15.6384 210.65 17.2099 209.079 17.2099 207.14C17.2099 205.201 15.6384 203.63 13.6999 203.63C11.7614 203.63 10.1899 205.201 10.1899 207.14C10.1899 209.079 11.7614 210.65 13.6999 210.65Z" fill="black"/>
<path d="M134.7 210.65C136.638 210.65 138.21 209.079 138.21 207.14C138.21 205.201 136.638 203.63 134.7 203.63C132.761 203.63 131.19 205.201 131.19 207.14C131.19 209.079 132.761 210.65 134.7 210.65Z" fill="black"/>
<path d="M255.7 210.65C257.638 210.65 259.21 209.079 259.21 207.14C259.21 205.201 257.638 203.63 255.7 203.63C253.761 203.63 252.19 205.201 252.19 207.14C252.19 209.079 253.761 210.65 255.7 210.65Z" fill="black"/>
<path d="M43.88 210.65C45.8185 210.65 47.39 209.079 47.39 207.14C47.39 205.201 45.8185 203.63 43.88 203.63C41.9415 203.63 40.37 205.201 40.37 207.14C40.37 209.079 41.9415 210.65 43.88 210.65Z" fill="black"/>
<path d="M164.88 210.65C166.819 210.65 168.39 209.079 168.39 207.14C168.39 205.201 166.819 203.63 164.88 203.63C162.941 203.63 161.37 205.201 161.37 207.14C161.37 209.079 162.941 210.65 164.88 210.65Z" fill="black"/>
<path d="M285.88 210.65C287.819 210.65 289.39 209.079 289.39 207.14C289.39 205.201 287.819 203.63 285.88 203.63C283.941 203.63 282.37 205.201 282.37 207.14C282.37 209.079 283.941 210.65 285.88 210.65Z" fill="black"/>
<path d="M74.0699 210.65C76.0084 210.65 77.5799 209.079 77.5799 207.14C77.5799 205.201 76.0084 203.63 74.0699 203.63C72.1314 203.63 70.5599 205.201 70.5599 207.14C70.5599 209.079 72.1314 210.65 74.0699 210.65Z" fill="black"/>
<path d="M195.07 210.65C197.009 210.65 198.58 209.079 198.58 207.14C198.58 205.201 197.009 203.63 195.07 203.63C193.132 203.63 191.56 205.201 191.56 207.14C191.56 209.079 193.132 210.65 195.07 210.65Z" fill="black"/>
<path d="M104.51 13.28C106.449 13.28 108.02 11.7085 108.02 9.77001C108.02 7.83149 106.449 6.26001 104.51 6.26001C102.571 6.26001 101 7.83149 101 9.77001C101 11.7085 102.571 13.28 104.51 13.28Z" fill="black"/>
<path d="M104.51 239.28C106.449 239.28 108.02 237.709 108.02 235.77C108.02 233.831 106.449 232.26 104.51 232.26C102.571 232.26 101 233.831 101 235.77C101 237.709 102.571 239.28 104.51 239.28Z" fill="black"/>
<path d="M225.51 13.28C227.449 13.28 229.02 11.7085 229.02 9.77001C229.02 7.83149 227.449 6.26001 225.51 6.26001C223.571 6.26001 222 7.83149 222 9.77001C222 11.7085 223.571 13.28 225.51 13.28Z" fill="black"/>
<path d="M225.51 239.28C227.449 239.28 229.02 237.709 229.02 235.77C229.02 233.831 227.449 232.26 225.51 232.26C223.571 232.26 222 233.831 222 235.77C222 237.709 223.571 239.28 225.51 239.28Z" fill="black"/>
<path d="M13.6999 13.28C15.6384 13.28 17.2099 11.7085 17.2099 9.77001C17.2099 7.83149 15.6384 6.26001 13.6999 6.26001C11.7614 6.26001 10.1899 7.83149 10.1899 9.77001C10.1899 11.7085 11.7614 13.28 13.6999 13.28Z" fill="black"/>
<path d="M13.6999 239.28C15.6384 239.28 17.2099 237.709 17.2099 235.77C17.2099 233.831 15.6384 232.26 13.6999 232.26C11.7614 232.26 10.1899 233.831 10.1899 235.77C10.1899 237.709 11.7614 239.28 13.6999 239.28Z" fill="black"/>
<path d="M134.7 13.28C136.638 13.28 138.21 11.7085 138.21 9.77001C138.21 7.83149 136.638 6.26001 134.7 6.26001C132.761 6.26001 131.19 7.83149 131.19 9.77001C131.19 11.7085 132.761 13.28 134.7 13.28Z" fill="black"/>
<path d="M134.7 239.28C136.638 239.28 138.21 237.709 138.21 235.77C138.21 233.831 136.638 232.26 134.7 232.26C132.761 232.26 131.19 233.831 131.19 235.77C131.19 237.709 132.761 239.28 134.7 239.28Z" fill="black"/>
<path d="M255.7 13.28C257.638 13.28 259.21 11.7085 259.21 9.77001C259.21 7.83149 257.638 6.26001 255.7 6.26001C253.761 6.26001 252.19 7.83149 252.19 9.77001C252.19 11.7085 253.761 13.28 255.7 13.28Z" fill="black"/>
<path d="M255.7 239.28C257.638 239.28 259.21 237.709 259.21 235.77C259.21 233.831 257.638 232.26 255.7 232.26C253.761 232.26 252.19 233.831 252.19 235.77C252.19 237.709 253.761 239.28 255.7 239.28Z" fill="black"/>
<path d="M43.88 13.28C45.8185 13.28 47.39 11.7085 47.39 9.77001C47.39 7.83149 45.8185 6.26001 43.88 6.26001C41.9415 6.26001 40.37 7.83149 40.37 9.77001C40.37 11.7085 41.9415 13.28 43.88 13.28Z" fill="black"/>
<path d="M43.88 239.28C45.8185 239.28 47.39 237.709 47.39 235.77C47.39 233.831 45.8185 232.26 43.88 232.26C41.9415 232.26 40.37 233.831 40.37 235.77C40.37 237.709 41.9415 239.28 43.88 239.28Z" fill="black"/>
<path d="M164.88 13.28C166.819 13.28 168.39 11.7085 168.39 9.77001C168.39 7.83149 166.819 6.26001 164.88 6.26001C162.941 6.26001 161.37 7.83149 161.37 9.77001C161.37 11.7085 162.941 13.28 164.88 13.28Z" fill="black"/>
<path d="M164.88 239.28C166.819 239.28 168.39 237.709 168.39 235.77C168.39 233.831 166.819 232.26 164.88 232.26C162.941 232.26 161.37 233.831 161.37 235.77C161.37 237.709 162.941 239.28 164.88 239.28Z" fill="black"/>
<path d="M285.88 13.28C287.819 13.28 289.39 11.7085 289.39 9.77001C289.39 7.83149 287.819 6.26001 285.88 6.26001C283.941 6.26001 282.37 7.83149 282.37 9.77001C282.37 11.7085 283.941 13.28 285.88 13.28Z" fill="black"/>
<path d="M285.88 239.28C287.819 239.28 289.39 237.709 289.39 235.77C289.39 233.831 287.819 232.26 285.88 232.26C283.941 232.26 282.37 233.831 282.37 235.77C282.37 237.709 283.941 239.28 285.88 239.28Z" fill="black"/>
<path d="M74.0699 13.28C76.0084 13.28 77.5799 11.7085 77.5799 9.77001C77.5799 7.83149 76.0084 6.26001 74.0699 6.26001C72.1314 6.26001 70.5599 7.83149 70.5599 9.77001C70.5599 11.7085 72.1314 13.28 74.0699 13.28Z" fill="black"/>
<path d="M74.0699 239.28C76.0084 239.28 77.5799 237.709 77.5799 235.77C77.5799 233.831 76.0084 232.26 74.0699 232.26C72.1314 232.26 70.5599 233.831 70.5599 235.77C70.5599 237.709 72.1314 239.28 74.0699 239.28Z" fill="black"/>
<path d="M195.07 13.28C197.009 13.28 198.58 11.7085 198.58 9.77001C198.58 7.83149 197.009 6.26001 195.07 6.26001C193.132 6.26001 191.56 7.83149 191.56 9.77001C191.56 11.7085 193.132 13.28 195.07 13.28Z" fill="black"/>
<path d="M195.07 239.28C197.009 239.28 198.58 237.709 198.58 235.77C198.58 233.831 197.009 232.26 195.07 232.26C193.132 232.26 191.56 233.831 191.56 235.77C191.56 237.709 193.132 239.28 195.07 239.28Z" fill="black"/>
<path d="M104.51 41.9C106.449 41.9 108.02 40.3285 108.02 38.39C108.02 36.4515 106.449 34.88 104.51 34.88C102.571 34.88 101 36.4515 101 38.39C101 40.3285 102.571 41.9 104.51 41.9Z" fill="black"/>
<path d="M104.51 267.9C106.449 267.9 108.02 266.329 108.02 264.39C108.02 262.451 106.449 260.88 104.51 260.88C102.571 260.88 101 262.451 101 264.39C101 266.329 102.571 267.9 104.51 267.9Z" fill="black"/>
<path d="M225.51 41.9C227.449 41.9 229.02 40.3285 229.02 38.39C229.02 36.4515 227.449 34.88 225.51 34.88C223.571 34.88 222 36.4515 222 38.39C222 40.3285 223.571 41.9 225.51 41.9Z" fill="black"/>
<path d="M225.51 267.9C227.449 267.9 229.02 266.329 229.02 264.39C229.02 262.451 227.449 260.88 225.51 260.88C223.571 260.88 222 262.451 222 264.39C222 266.329 223.571 267.9 225.51 267.9Z" fill="black"/>
<path d="M13.6999 41.9C15.6384 41.9 17.2099 40.3285 17.2099 38.39C17.2099 36.4515 15.6384 34.88 13.6999 34.88C11.7614 34.88 10.1899 36.4515 10.1899 38.39C10.1899 40.3285 11.7614 41.9 13.6999 41.9Z" fill="black"/>
<path d="M13.6999 267.9C15.6384 267.9 17.2099 266.329 17.2099 264.39C17.2099 262.451 15.6384 260.88 13.6999 260.88C11.7614 260.88 10.1899 262.451 10.1899 264.39C10.1899 266.329 11.7614 267.9 13.6999 267.9Z" fill="black"/>
<path d="M134.7 41.9C136.638 41.9 138.21 40.3285 138.21 38.39C138.21 36.4515 136.638 34.88 134.7 34.88C132.761 34.88 131.19 36.4515 131.19 38.39C131.19 40.3285 132.761 41.9 134.7 41.9Z" fill="black"/>
<path d="M134.7 267.9C136.638 267.9 138.21 266.329 138.21 264.39C138.21 262.451 136.638 260.88 134.7 260.88C132.761 260.88 131.19 262.451 131.19 264.39C131.19 266.329 132.761 267.9 134.7 267.9Z" fill="black"/>
<path d="M255.7 41.9C257.638 41.9 259.21 40.3285 259.21 38.39C259.21 36.4515 257.638 34.88 255.7 34.88C253.761 34.88 252.19 36.4515 252.19 38.39C252.19 40.3285 253.761 41.9 255.7 41.9Z" fill="black"/>
<path d="M255.7 267.9C257.638 267.9 259.21 266.329 259.21 264.39C259.21 262.451 257.638 260.88 255.7 260.88C253.761 260.88 252.19 262.451 252.19 264.39C252.19 266.329 253.761 267.9 255.7 267.9Z" fill="black"/>
<path d="M43.88 41.9C45.8185 41.9 47.39 40.3285 47.39 38.39C47.39 36.4515 45.8185 34.88 43.88 34.88C41.9415 34.88 40.37 36.4515 40.37 38.39C40.37 40.3285 41.9415 41.9 43.88 41.9Z" fill="black"/>
<path d="M43.88 267.9C45.8185 267.9 47.39 266.329 47.39 264.39C47.39 262.451 45.8185 260.88 43.88 260.88C41.9415 260.88 40.37 262.451 40.37 264.39C40.37 266.329 41.9415 267.9 43.88 267.9Z" fill="black"/>
<path d="M164.88 41.9C166.819 41.9 168.39 40.3285 168.39 38.39C168.39 36.4515 166.819 34.88 164.88 34.88C162.941 34.88 161.37 36.4515 161.37 38.39C161.37 40.3285 162.941 41.9 164.88 41.9Z" fill="black"/>
<path d="M164.88 267.9C166.819 267.9 168.39 266.329 168.39 264.39C168.39 262.451 166.819 260.88 164.88 260.88C162.941 260.88 161.37 262.451 161.37 264.39C161.37 266.329 162.941 267.9 164.88 267.9Z" fill="black"/>
<path d="M285.88 41.9C287.819 41.9 289.39 40.3285 289.39 38.39C289.39 36.4515 287.819 34.88 285.88 34.88C283.941 34.88 282.37 36.4515 282.37 38.39C282.37 40.3285 283.941 41.9 285.88 41.9Z" fill="black"/>
<path d="M285.88 267.9C287.819 267.9 289.39 266.329 289.39 264.39C289.39 262.451 287.819 260.88 285.88 260.88C283.941 260.88 282.37 262.451 282.37 264.39C282.37 266.329 283.941 267.9 285.88 267.9Z" fill="black"/>
<path d="M74.0699 41.9C76.0084 41.9 77.5799 40.3285 77.5799 38.39C77.5799 36.4515 76.0084 34.88 74.0699 34.88C72.1314 34.88 70.5599 36.4515 70.5599 38.39C70.5599 40.3285 72.1314 41.9 74.0699 41.9Z" fill="black"/>
<path d="M74.0699 267.9C76.0084 267.9 77.5799 266.329 77.5799 264.39C77.5799 262.451 76.0084 260.88 74.0699 260.88C72.1314 260.88 70.5599 262.451 70.5599 264.39C70.5599 266.329 72.1314 267.9 74.0699 267.9Z" fill="black"/>
<path d="M195.07 41.9C197.009 41.9 198.58 40.3285 198.58 38.39C198.58 36.4515 197.009 34.88 195.07 34.88C193.132 34.88 191.56 36.4515 191.56 38.39C191.56 40.3285 193.132 41.9 195.07 41.9Z" fill="black"/>
<path d="M195.07 267.9C197.009 267.9 198.58 266.329 198.58 264.39C198.58 262.451 197.009 260.88 195.07 260.88C193.132 260.88 191.56 262.451 191.56 264.39C191.56 266.329 193.132 267.9 195.07 267.9Z" fill="black"/>
</g>
</g>
<defs>
<clipPath id="clip0_299_2">
<rect width="300" height="300" fill="white"/>
</clipPath>
</defs>
</svg>
